HIERARCHY
ROOT Hips
{
	OFFSET 0.0000 0.0000 0.0000
	CHANNELS 6 Xposition Yposition Zposition Zrotation Xrotation Yrotation
	JOINT Ab
	{
		OFFSET -0.0000 8.0846 -0.0000
		CHANNELS 3 Zrotation Xrotation Yrotation
		JOINT Chest
		{
			OFFSET -0.0000 25.0068 -0.0000
			CHANNELS 3 Zrotation Xrotation Yrotation
			JOINT Neck
			{
				OFFSET -0.0000 25.0068 0.0000
				CHANNELS 3 Zrotation Xrotation Yrotation
				JOINT Head
				{
					OFFSET -0.0000 10.7556 0.0000
					CHANNELS 3 Zrotation Xrotation Yrotation
					End Site
					{
						OFFSET -0.0000 16.6222 0.0000
					}
				}
			}
			JOINT LeftCollar
			{
				OFFSET -0.0000 25.0068 0.0000
				CHANNELS 3 Zrotation Xrotation Yrotation
				JOINT LeftShoulder
				{
					OFFSET 19.5556 -0.0000 0.0000
					CHANNELS 3 Zrotation Xrotation Yrotation
					JOINT LeftElbow
					{
						OFFSET 27.1828 0.0000 0.0000
						CHANNELS 3 Zrotation Xrotation Yrotation
						JOINT LeftWrist
						{
							OFFSET 23.3157 0.0000 0.0000
							CHANNELS 3 Zrotation Xrotation Yrotation
							End Site
							{
								OFFSET 0.0000 -14.6667 0.0000
							}
						}
					}
				}
			}
			JOINT RightCollar
			{
				OFFSET -0.0000 25.0068 0.0000
				CHANNELS 3 Zrotation Xrotation Yrotation
				JOINT RightShoulder
				{
					OFFSET -19.5556 0.0000 0.0000
					CHANNELS 3 Zrotation Xrotation Yrotation
					JOINT RightElbow
					{
						OFFSET -27.1828 0.0000 0.0000
						CHANNELS 3 Zrotation Xrotation Yrotation
						JOINT RightWrist
						{
							OFFSET -23.3157 0.0000 0.0000
							CHANNELS 3 Zrotation Xrotation Yrotation
							End Site
							{
								OFFSET -0.0000 -14.6667 0.0000
							}
						}
					}
				}
			}
		}
	}
	JOINT LeftHip
	{
		OFFSET 11.7333 0.0000 0.0000
		CHANNELS 3 Zrotation Xrotation Yrotation
		JOINT LeftKnee
		{
			OFFSET -0.0000 -40.8688 0.0000
			CHANNELS 3 Zrotation Xrotation Yrotation
			JOINT LeftAnkle
			{
				OFFSET -0.0000 -44.4337 0.0000
				CHANNELS 3 Zrotation Xrotation Yrotation
				End Site
				{
					OFFSET -0.0000 -4.8889 16.6222
				}
			}
		}
	}
	JOINT RightHip
	{
		OFFSET -11.7333 0.0000 0.0000
		CHANNELS 3 Zrotation Xrotation Yrotation
		JOINT RightKnee
		{
			OFFSET -0.0000 -40.8688 0.0000
			CHANNELS 3 Zrotation Xrotation Yrotation
			JOINT RightAnkle
			{
				OFFSET -0.0000 -44.4337 0.0000
				CHANNELS 3 Zrotation Xrotation Yrotation
				End Site
				{
					OFFSET -0.0000 -4.8889 16.6222
				}
			}
		}
	}
}
MOTION
Frames: 8
Frame Time: 0.010000
1.9337 85.8452 96.2982 1.7641 352.3517 172.7973 2.2856 6.8590 3.6302 353.4209 6.1243 4.1152 3.4573 334.9714 0.5608 0.5182 6.6498 359.7582 343.2367 356.9508 20.2514 288.7792 43.0139 14.0797 37.8327 347.1464 325.3085 89.4575 359.0219 6.1161 20.0930 358.9604 354.0273 28.9169 50.2275 40.0154 326.6908 345.1427 47.6120 271.8150 347.8107 14.2874 5.8040 327.6246 355.6407 354.6161 20.5383 3.2690 349.2032 347.3071 20.9291 0.9678 356.5340 0.4803 357.0162 41.0330 8.1656 0.7614 342.5996 343.3181 
1.8269 85.4831 95.0402 1.8073 352.6447 172.7922 2.3445 7.0102 3.5676 353.1085 6.2708 4.0823 3.5364 334.8914 0.4527 0.7192 6.5134 359.6133 343.0746 356.9291 20.2043 289.2826 43.8329 13.4277 38.6596 347.1645 326.0527 89.6698 359.0203 6.7508 20.2806 358.9221 353.8494 29.3705 50.0848 39.3223 327.0885 345.3383 47.6586 271.3856 347.9906 14.4653 5.7389 327.8616 355.8193 354.4418 21.9801 2.4887 354.2782 349.2238 20.9138 0.7743 356.6171 0.7239 356.9482 42.8070 8.5315 1.4437 342.4044 343.4494 
1.7301 85.1568 94.0305 1.7667 352.7592 172.7598 2.2661 7.0149 3.5612 352.9276 6.3365 4.0845 3.7154 334.8371 0.4553 0.8649 6.3849 359.5776 342.9522 356.8988 20.2406 289.7118 44.1505 12.7608 39.3206 347.1888 326.4183 89.5823 359.2277 6.9287 20.4019 358.9038 353.8092 30.1141 49.9450 38.3613 327.5469 345.5858 47.6998 271.1974 347.9498 14.8565 5.6055 328.0206 356.0623 354.2748 23.1907 1.7427 356.7253 349.8003 21.1771 0.5665 356.4075 0.9022 356.7158 44.4415 9.0944 1.8815 342.3381 343.3884 
1.3939 84.7151 91.7462 1.3224 352.7143 172.3735 1.6764 6.6194 3.8045 352.5811 6.4229 4.3102 4.1735 334.6234 0.4140 0.9924 6.5153 359.3971 342.7460 356.8115 20.5433 290.1581 45.6557 12.1810 40.7468 347.0807 327.4333 89.2441 359.3024 7.6054 20.4896 358.8701 353.7580 31.6769 49.7893 36.5258 327.8055 345.6048 48.0385 271.6320 347.9491 15.6444 4.8809 327.9920 356.9662 354.0030 25.8522 0.1219 357.8946 351.1102 22.8046 359.6182 356.0106 0.8948 356.0892 47.3147 9.9482 3.1995 342.6981 344.1531 
1.1766 84.3925 90.2568 1.0169 352.8805 172.3950 1.2859 6.5842 3.6968 352.4513 6.5599 4.1948 4.3512 334.4721 0.2793 1.0270 6.5347 359.2262 342.5961 356.8681 19.3654 291.2665 41.4477 12.1068 38.6254 347.7714 325.9286 89.7598 0.2054 4.4283 20.6284 358.8184 353.4490 32.8362 49.5136 35.2118 328.4372 345.9164 48.1288 271.2048 347.8725 15.9566 4.2286 327.9743 356.6947 353.7582 27.6473 359.9110 358.4399 351.2998 22.6232 359.1535 355.4534 0.8696 355.1477 49.9410 11.1427 4.3150 342.8904 344.3325 
0.9920 84.1357 88.7769 0.7668 353.1155 172.5222 0.8688 6.6533 3.5791 352.4151 6.7258 4.0654 4.4897 334.4530 0.2587 1.2417 6.2305 359.1677 342.2925 356.8777 18.9458 292.0696 40.8583 11.3208 38.6237 347.6541 325.8253 89.9621 0.4180 3.6520 20.7084 358.7737 353.2480 34.2178 49.4070 33.7808 328.8438 346.1211 47.9952 270.7850 347.7454 16.2073 3.8558 328.0255 356.0909 352.8743 29.4975 0.1222 358.9649 351.0746 22.7862 358.8807 354.7932 1.1138 354.6781 52.7917 11.0622 2.7741 345.3966 344.2871 
0.8180 83.9266 87.3172 0.4784 353.3827 172.7416 0.3512 6.8040 3.4622 352.4907 6.7998 3.9186 4.5284 334.5256 0.1195 1.3916 5.8833 359.0078 341.9124 356.8761 18.3675 293.0173 40.1117 10.5587 38.5971 347.6290 325.5799 89.9884 0.6319 2.9384 20.7423 358.7607 353.2053 36.3933 48.9651 31.6420 329.3541 346.4045 47.8947 270.6500 347.3324 16.7077 3.4894 328.0912 355.9286 351.9723 31.4152 359.9518 359.2381 350.6741 23.4134 358.6055 353.9501 1.5226 355.0558 55.8245 9.3961 0.6645 347.9983 344.3018 
0.6624 83.7918 85.8778 0.1649 353.7199 173.0812 359.8387 7.0616 3.2657 352.5528 6.8700 3.6918 4.7101 334.4588 0.0785 1.3466 5.8566 358.9298 341.6073 356.9093 17.7691 293.8035 40.1273 9.5150 38.9432 347.4944 325.8664 89.5546 0.7088 2.3434 20.7618 358.7459 353.1118 38.9037 48.2583 29.3113 330.0813 346.8369 47.7144 270.1964 347.1378 17.3343 3.0262 328.3649 356.2770 351.4935 33.0405 359.9894 358.9400 350.1945 22.6711 358.2715 352.9285 1.9271 355.9164 59.1187 7.1558 1.5265 349.1433 345.3866 
